<svg xmlns="http://www.w3.org/2000/svg" width="37" height="36" viewBox="0 0 37 36" fill="none">
  <path d="M8.66472 29.6667C6.49787 29.4536 4.87462 28.8027 3.78599 27.7141C1.83337 25.7616 1.83337 22.6187 1.83337 16.3334V15.5001C1.83337 9.21468 1.83337 6.072 3.78599 4.11936C5.73862 2.16675 8.88131 2.16675 15.1667 2.16675H21.8334C28.1187 2.16675 31.2615 2.16675 33.214 4.11936C35.1667 6.072 35.1667 9.21468 35.1667 15.5001V16.3334C35.1667 22.6187 35.1667 25.7616 33.214 27.7141C31.2615 29.6667 28.1187 29.6667 21.8334 29.6667C20.8992 29.6876 20.1552 29.7586 19.4244 29.9251C17.427 30.3849 15.5775 31.4069 13.7498 32.2982C11.1455 33.5681 9.84337 34.2031 9.02619 33.6086C7.46286 32.4442 8.99094 28.8366 9.33337 27.1667" stroke="#737373" stroke-width="2.5" stroke-linecap="round"/>
</svg>